<svg width="64" height="18" viewBox="0 0 64 18" fill="none" xmlns="http://www.w3.org/2000/svg">
<path d="M9.44 14V12H2.58V0.6H0.32V14H9.44ZM14.3972 14.2C17.2372 14.2 19.1572 12.16 19.1572 9.14C19.1572 6.1 17.2372 4.06 14.3972 4.06C11.5972 4.06 9.67719 6.1 9.67719 9.14C9.67719 12.16 11.5972 14.2 14.3972 14.2ZM14.4172 12.34C12.9772 12.34 11.9772 11.38 11.9772 9.14C11.9772 6.88 12.9772 5.92 14.4172 5.92C15.8772 5.92 16.8772 6.88 16.8772 9.14C16.8772 11.38 15.8772 12.34 14.4172 12.34ZM24.9813 11.08C27.3813 11.08 29.0013 9.64 29.0013 7.58C29.0013 6.36 28.4413 5.36 27.4813 4.74L29.3013 2.74L27.1413 2L26.6613 4.34C26.1613 4.16 25.6013 4.06 24.9813 4.06C22.5813 4.06 20.9413 5.52 20.9413 7.58C20.9413 8.82 21.5413 9.84 22.5213 10.44C21.6213 11.06 20.8613 11.92 20.8613 12.8C20.8613 13.54 21.3213 14 22.0213 14.2C21.0813 14.42 20.2013 14.92 20.2013 15.84C20.2013 17.06 21.7813 17.92 24.5013 17.92C28.0413 17.92 29.8413 16.52 29.8413 14.68C29.8413 13.22 28.7813 12.44 26.8413 12.44H23.7013C22.8013 12.44 22.5413 12.18 22.5413 11.68C22.5413 11.34 22.7613 10.96 22.9413 10.66C23.5213 10.94 24.2213 11.08 24.9813 11.08ZM24.9813 9.48C23.9213 9.48 23.0813 8.8 23.0813 7.58C23.0813 6.36 23.9213 5.68 24.9813 5.68C26.0413 5.68 26.8813 6.36 26.8813 7.58C26.8813 8.8 26.0413 9.48 24.9813 9.48ZM24.6013 16.24C22.8213 16.24 22.0213 15.82 22.0213 15.1C22.0213 14.76 22.2613 14.44 22.4813 14.22H26.5413C27.4013 14.22 27.8213 14.44 27.8213 14.96C27.8213 15.78 26.7013 16.24 24.6013 16.24ZM39.5339 14.2C42.3739 14.2 44.2939 12.16 44.2939 9.14C44.2939 6.1 42.3739 4.06 39.5339 4.06C36.7339 4.06 34.8139 6.1 34.8139 9.14C34.8139 12.16 36.7339 14.2 39.5339 14.2ZM39.5539 12.34C38.1139 12.34 37.1139 11.38 37.1139 9.14C37.1139 6.88 38.1139 5.92 39.5539 5.92C41.0139 5.92 42.0139 6.88 42.0139 9.14C42.0139 11.38 41.0139 12.34 39.5539 12.34ZM49.1952 14.2C51.1352 14.2 52.1352 12.88 52.4952 11.34V14H54.7552V4.26H52.4952V9.72C52.4952 11.32 51.9352 12.38 50.2952 12.38C48.7952 12.38 48.3952 11.56 48.3952 10.36V4.26H46.1552V11.04C46.1552 13.06 47.3152 14.2 49.1952 14.2ZM60.3797 14.22C61.7997 14.22 62.7597 13.56 63.1797 12.94L62.4797 10.94C62.1997 11.5 61.6397 12.12 60.8797 12.12C60.2197 12.12 59.7197 11.86 59.7197 10.8V6H62.6997V4.26H59.7197V1.66L57.4797 3.08V4.26H55.9597V6H57.4797V11.34C57.4797 13.06 58.5397 14.22 60.3797 14.22Z" fill="black"/>
</svg>
