<svg width="66" height="18" viewBox="0 0 66 18" fill="none" xmlns="http://www.w3.org/2000/svg">
<path d="M6.8 14.2C9.52 14.2 11.56 12.8 11.56 10.38C11.56 7.82 9.64 6.98 7.5 6.46L6 6.1C4.54 5.74 3.62 5.32 3.62 4.14C3.62 3.12 4.54 2.52 5.82 2.52C7.46 2.52 8.9 3.24 9.64 4.9L11.34 3.28C10.38 1.44 8.42 0.42 5.96 0.42C3.44 0.42 1.26 1.78 1.26 4.3C1.26 6.84 3.28 7.7 5.18 8.1L6.44 8.38C8.18 8.76 9.26 9.12 9.26 10.42C9.26 11.64 8.18 12.12 6.84 12.12C5.2 12.12 3.18 11.36 2.46 9.4L0.86 11.02C1.9 13.28 4.24 14.2 6.8 14.2ZM15.8028 2.88V0.6H13.5628V2.88H15.8028ZM15.8028 14V4.26H13.5628V14H15.8028ZM22.1922 11.08C24.5922 11.08 26.2122 9.64 26.2122 7.58C26.2122 6.36 25.6522 5.36 24.6922 4.74L26.5122 2.74L24.3522 2L23.8722 4.34C23.3722 4.16 22.8122 4.06 22.1922 4.06C19.7922 4.06 18.1522 5.52 18.1522 7.58C18.1522 8.82 18.7522 9.84 19.7322 10.44C18.8322 11.06 18.0722 11.92 18.0722 12.8C18.0722 13.54 18.5322 14 19.2322 14.2C18.2922 14.42 17.4122 14.92 17.4122 15.84C17.4122 17.06 18.9922 17.92 21.7122 17.92C25.2522 17.92 27.0522 16.52 27.0522 14.68C27.0522 13.22 25.9922 12.44 24.0522 12.44H20.9122C20.0122 12.44 19.7522 12.18 19.7522 11.68C19.7522 11.34 19.9722 10.96 20.1522 10.66C20.7322 10.94 21.4322 11.08 22.1922 11.08ZM22.1922 9.48C21.1322 9.48 20.2922 8.8 20.2922 7.58C20.2922 6.36 21.1322 5.68 22.1922 5.68C23.2522 5.68 24.0922 6.36 24.0922 7.58C24.0922 8.8 23.2522 9.48 22.1922 9.48ZM21.8122 16.24C20.0322 16.24 19.2322 15.82 19.2322 15.1C19.2322 14.76 19.4722 14.44 19.6922 14.22H23.7522C24.6122 14.22 25.0322 14.44 25.0322 14.96C25.0322 15.78 23.9122 16.24 21.8122 16.24ZM30.627 14V8.54C30.627 6.94 31.187 5.88 32.827 5.88C34.327 5.88 34.727 6.7 34.727 7.9V14H36.987V7.22C36.987 5.2 35.827 4.06 33.927 4.06C31.987 4.06 30.987 5.38 30.627 6.92V4.26H28.387V14H30.627ZM48.7456 14.2C52.4056 14.2 54.1056 12.34 54.1056 8.28V0.6H51.8656V8.3C51.8656 10.96 51.0056 12.04 48.7656 12.04C46.5656 12.04 45.6656 10.96 45.6656 8.3V0.6H43.4256V8.28C43.4256 12.34 45.1656 14.2 48.7456 14.2ZM58.6934 17.72V11.4C59.0134 12.9 59.8334 14.2 61.7734 14.2C64.1734 14.2 65.6934 12.26 65.6934 9.12C65.6934 5.98 64.1734 4.04 61.8134 4.04C59.8734 4.04 59.0134 5.34 58.6934 6.86V4.26H56.4534V17.72H58.6934ZM58.6934 9.72V8.52C58.6934 6.92 59.3534 5.86 60.9334 5.86C62.3334 5.86 63.3934 6.92 63.3934 9.12C63.3934 11.32 62.3334 12.38 60.9334 12.38C59.3534 12.38 58.6934 11.32 58.6934 9.72Z" fill="black"/>
</svg>
